<?xml version="1.0" encoding="UTF-8" standalone="no"?>
<!DOCTYPE svg PUBLIC "-//W3C//DTD SVG 1.1//EN"
 "http://www.w3.org/Graphics/SVG/1.1/DTD/svg11.dtd">
<!-- Generated by graphviz version 2.43.0 (0)
 -->
<!-- Title: G Pages: 1 -->
<svg width="363pt" height="302pt"
 viewBox="0.00 0.00 362.60 302.00" xmlns="http://www.w3.org/2000/svg" xmlns:xlink="http://www.w3.org/1999/xlink">
<g id="graph0" class="graph" transform="scale(1 1) rotate(0) translate(4 298)">
<title>G</title><style>.edge>path:hover{stroke-width:8}</style>
<polygon fill="white" stroke="transparent" points="-4,4 -4,-298 358.6,-298 358.6,4 -4,4"/>
<!-- EDMarketConnector_config -->
<g id="node1" class="node">
<title>EDMarketConnector_config</title><style>.edge>path:hover{stroke-width:8}</style>
<polygon fill="blue" stroke="black" points="198.96,-36 82.96,-36 82.96,0 198.96,0 198.96,-36"/>
<text text-anchor="middle" x="140.96" y="-21" font-family="Helvetica,sans-Serif" font-size="10.00" fill="white">EDMarketConnector.</text>
<text text-anchor="middle" x="140.96" y="-10" font-family="Helvetica,sans-Serif" font-size="10.00" fill="white">config</text>
</g>
<!-- EDMarketConnector_config_linux -->
<g id="node2" class="node">
<title>EDMarketConnector_config_linux</title><style>.edge>path:hover{stroke-width:8}</style>
<polygon fill="blue" stroke="black" points="131.96,-113 15.96,-113 15.96,-72 131.96,-72 131.96,-113"/>
<text text-anchor="middle" x="73.96" y="-101" font-family="Helvetica,sans-Serif" font-size="10.00" fill="white">EDMarketConnector.</text>
<text text-anchor="middle" x="73.96" y="-90" font-family="Helvetica,sans-Serif" font-size="10.00" fill="white">config.</text>
<text text-anchor="middle" x="73.96" y="-79" font-family="Helvetica,sans-Serif" font-size="10.00" fill="white">linux</text>
</g>
<!-- EDMarketConnector_config_linux&#45;&gt;EDMarketConnector_config -->
<g id="edge1" class="edge">
<title>EDMarketConnector_config_linux&#45;&gt;EDMarketConnector_config</title><style>.edge>path:hover{stroke-width:8}</style>
<path fill="none" stroke="black" d="M92.27,-71.69C100.26,-63.04 109.72,-52.81 118.16,-43.68"/>
<polygon fill="blue" stroke="black" points="120.74,-46.04 124.96,-36.32 115.6,-41.29 120.74,-46.04"/>
</g>
<!-- EDMarketConnector_config_windows -->
<g id="node3" class="node">
<title>EDMarketConnector_config_windows</title><style>.edge>path:hover{stroke-width:8}</style>
<polygon fill="blue" stroke="black" points="265.96,-113 149.96,-113 149.96,-72 265.96,-72 265.96,-113"/>
<text text-anchor="middle" x="207.96" y="-101" font-family="Helvetica,sans-Serif" font-size="10.00" fill="white">EDMarketConnector.</text>
<text text-anchor="middle" x="207.96" y="-90" font-family="Helvetica,sans-Serif" font-size="10.00" fill="white">config.</text>
<text text-anchor="middle" x="207.96" y="-79" font-family="Helvetica,sans-Serif" font-size="10.00" fill="white">windows</text>
</g>
<!-- EDMarketConnector_config_windows&#45;&gt;EDMarketConnector_config -->
<g id="edge2" class="edge">
<title>EDMarketConnector_config_windows&#45;&gt;EDMarketConnector_config</title><style>.edge>path:hover{stroke-width:8}</style>
<path fill="none" stroke="black" d="M189.65,-71.69C181.66,-63.04 172.21,-52.81 163.77,-43.68"/>
<polygon fill="blue" stroke="black" points="166.33,-41.29 156.97,-36.32 161.19,-46.04 166.33,-41.29"/>
</g>
<!-- semantic_version -->
<g id="node4" class="node">
<title>semantic_version</title><style>.edge>path:hover{stroke-width:8}</style>
<ellipse fill="#53b653" stroke="black" cx="293.96" cy="-167" rx="60.76" ry="18"/>
<text text-anchor="middle" x="293.96" y="-164.5" font-family="Helvetica,sans-Serif" font-size="10.00" fill="#000000">semantic_version</text>
</g>
<!-- semantic_version&#45;&gt;EDMarketConnector_config -->
<g id="edge3" class="edge">
<title>semantic_version&#45;&gt;EDMarketConnector_config</title><style>.edge>path:hover{stroke-width:8}</style>
<path fill="none" stroke="black" d="M295.12,-148.65C295.55,-128.04 293.13,-93.71 274.96,-72 258.31,-52.1 233.16,-39.63 209.13,-31.83"/>
<polygon fill="#53b653" stroke="black" points="209.87,-28.4 199.28,-28.86 207.85,-35.1 209.87,-28.4"/>
</g>
<!-- tomli_w -->
<g id="node5" class="node">
<title>tomli_w</title><style>.edge>path:hover{stroke-width:8}</style>
<ellipse fill="#2626d9" stroke="black" cx="73.96" cy="-276" rx="32.93" ry="18"/>
<text text-anchor="middle" x="73.96" y="-273.5" font-family="Helvetica,sans-Serif" font-size="10.00" fill="#ffffff">tomli_w</text>
</g>
<!-- tomli_w&#45;&gt;EDMarketConnector_config -->
<g id="edge4" class="edge">
<title>tomli_w&#45;&gt;EDMarketConnector_config</title><style>.edge>path:hover{stroke-width:8}</style>
<path fill="none" stroke="black" d="M72.85,-257.89C71.74,-236.72 70.61,-199.59 73.96,-168"/>
<path fill="none" stroke="black" d="M73.96,-166C78.66,-128.32 23.5,-147.18 6.96,-113 -0.98,-96.6 -3.28,-87.07 6.96,-72 21.99,-49.9 47.8,-37.02 72.79,-29.5"/>
<polygon fill="#2626d9" stroke="black" points="73.96,-32.81 82.67,-26.79 72.1,-26.06 73.96,-32.81"/>
</g>
<!-- tomli_w&#45;&gt;EDMarketConnector_config_linux -->
<g id="edge5" class="edge">
<title>tomli_w&#45;&gt;EDMarketConnector_config_linux</title><style>.edge>path:hover{stroke-width:8}</style>
<path fill="none" stroke="black" d="M73.96,-166C75.44,-152.11 75.63,-136.65 75.38,-123.58"/>
<polygon fill="#2626d9" stroke="black" points="78.87,-123.15 75.09,-113.25 71.88,-123.35 78.87,-123.15"/>
</g>
<!-- tomli_w&#45;&gt;EDMarketConnector_config_windows -->
<g id="edge6" class="edge">
<title>tomli_w&#45;&gt;EDMarketConnector_config_windows</title><style>.edge>path:hover{stroke-width:8}</style>
<path fill="none" stroke="black" d="M73.96,-166C75.76,-149.05 109.71,-130.79 142.99,-116.84"/>
<polygon fill="#2626d9" stroke="black" points="144.39,-120.04 152.33,-113.02 141.75,-113.56 144.39,-120.04"/>
</g>
</g>
</svg>
